<svg xmlns="http://www.w3.org/2000/svg" version="1.1" xmlns:xlink="http://www.w3.org/1999/xlink" xmlns:svgjs="http://svgjs.dev/svgjs" width="1920" height="835" preserveAspectRatio="none" viewBox="0 0 1440 560">
    <g mask="url(&quot;#SvgjsMask1000&quot;)" fill="none">
        <rect width="1440" height="560" x="0" y="0" fill="#0e2a47"></rect>
        <path d="M 0,206 C 57.6,175.4 172.8,62.4 288,53 C 403.2,43.6 460.8,146.8 576,159 C 691.2,171.2 748.8,95.8 864,114 C 979.2,132.2 1036.8,271.8 1152,250 C 1267.2,228.2 1382.4,54 1440,5L1440 560L0 560z" fill="#184a7e"></path>
        <path d="M 0,325 C 96,363 288,516.6 480,515 C 672,513.4 768,331 960,317 C 1152,303 1344,419.4 1440,445L1440 560L0 560z" fill="#2264ab"></path>
    </g>
    <defs>
        <mask id="SvgjsMask1000">
            <rect width="1440" height="560" fill="#ffffff"></rect>
        </mask>
    </defs>
</svg>